# xmcd CD database file
#
# Track frame offsets:
#	182
#	8922
#	19220
#	30135
#	42202
#	51912
#	63565
#	77825
#	93745
#	106067
#	123322
#	143447
#
# Disc length: 2057 seconds
#
# Revision: 2
# Processed by: cddbd v1.5.1PL2 Copyright (c) Steve Scherf et al.
# Submitted via: CDex 1.51
#
DISCID=9008070c
DTITLE=Gerry - Gerry and the Pacemackers
DYEAR=1900
DGENRE=
TTITLE0=how do you do it
TTITLE1=I'm the one
TTITLE2=ferry cross the mersey
TTITLE3=you´ll never walk alone
TTITLE4=i like it
TTITLE5=it´s still rock and roll
TTITLE6=roll over beethoven
TTITLE7=unchained melody
TTITLE8=imagine
TTITLE9=runinng man
TTITLE10=just the way you are
TTITLE11=don´t let the sun catch you crying
EXTD=
EXTT0=
EXTT1=
EXTT2=
EXTT3=
EXTT4=
EXTT5=
EXTT6=
EXTT7=
EXTT8=
EXTT9=
EXTT10=
EXTT11=
PLAYORDER=
